<svg width="40" height="24" viewBox="0 0 40 24" fill="none" xmlns="http://www.w3.org/2000/svg">
<path d="M38 13.6C38.8837 13.6 39.6 12.8837 39.6 12C39.6 11.1163 38.8837 10.4 38 10.4V13.6ZM0.868629 10.8686C0.24379 11.4935 0.24379 12.5065 0.868629 13.1314L11.051 23.3137C11.6758 23.9385 12.6889 23.9385 13.3137 23.3137C13.9385 22.6889 13.9385 21.6758 13.3137 21.051L4.26274 12L13.3137 2.94903C13.9385 2.32419 13.9385 1.31113 13.3137 0.686291C12.6889 0.0614525 11.6758 0.0614525 11.051 0.686291L0.868629 10.8686ZM38 12V10.4L2 10.4V12V13.6L38 13.6V12Z" fill="#1677C7"/>
</svg>
