<svg width="18" height="18" viewBox="0 0 18 18" fill="none" xmlns="http://www.w3.org/2000/svg">
<path d="M9.4965 10.4336L13.7545 6.20861C13.8993 6.0649 14.0707 5.99544 14.2686 6.00023C14.4665 6.00502 14.6379 6.07927 14.7828 6.22298C14.9276 6.36668 15 6.53674 15 6.73314C15 6.92954 14.9276 7.09959 14.7828 7.2433L10.322 11.6551C10.2062 11.7701 10.0758 11.8563 9.93098 11.9138C9.78615 11.9713 9.64133 12 9.4965 12C9.35167 12 9.20684 11.9713 9.06201 11.9138C8.91718 11.8563 8.78683 11.7701 8.67097 11.6551L4.21024 7.22893C4.06541 7.08522 3.99541 6.91756 4.00023 6.72595C4.00506 6.53434 4.07989 6.36668 4.22472 6.22298C4.36955 6.07927 4.54093 6.00742 4.73886 6.00742C4.93679 6.00742 5.10818 6.07927 5.253 6.22298L9.4965 10.4336Z" fill="#6A6C79"/>
</svg>
