<svg width="24" height="24" viewBox="0 0 24 24" fill="none" xmlns="http://www.w3.org/2000/svg">
<path d="M6 19.1235V4.87652C6 4.4865 6.13827 4.15958 6.41481 3.89575C6.69136 3.63192 7.01399 3.5 7.38272 3.5C7.49794 3.5 7.61893 3.51721 7.74568 3.55162C7.87243 3.58603 7.99342 3.63765 8.10864 3.70648L19.3778 10.83C19.5852 10.9676 19.7407 11.1397 19.8444 11.3462C19.9481 11.5526 20 11.7706 20 12C20 12.2294 19.9481 12.4474 19.8444 12.6538C19.7407 12.8603 19.5852 13.0324 19.3778 13.17L8.10864 20.2935C7.99342 20.3623 7.87243 20.414 7.74568 20.4484C7.61893 20.4828 7.49794 20.5 7.38272 20.5C7.01399 20.5 6.69136 20.3681 6.41481 20.1043C6.13827 19.8404 6 19.5135 6 19.1235Z" fill="#E3E3E3"/>
</svg>
