<svg width="1660" height="1080" viewBox="0 0 1660 1080" fill="none" xmlns="http://www.w3.org/2000/svg">
<rect x="213" y="614" width="72" height="72" rx="8" fill="#191C24"/>
<rect x="1349.2" y="154.2" width="69.6" height="69.6" rx="6.8" stroke="#1677C7" stroke-width="2.4"/>
<line x1="1419.11" y1="200.907" x2="1395.91" y2="224.107" stroke="#1677C7" stroke-width="2"/>
<line x1="1418.31" y1="167.307" x2="1361.51" y2="224.107" stroke="#1677C7" stroke-width="2"/>
<line x1="1393.51" y1="154.507" x2="1348.71" y2="199.307" stroke="#1677C7" stroke-width="2"/>
<line x1="1419.11" y1="211.307" x2="1406.31" y2="224.107" stroke="#1677C7" stroke-width="2"/>
<line x1="1419.11" y1="189.707" x2="1384.71" y2="224.107" stroke="#1677C7" stroke-width="2"/>
<line x1="1416.71" y1="157.707" x2="1351.91" y2="222.507" stroke="#1677C7" stroke-width="2"/>
<line x1="1381.51" y1="153.707" x2="1348.71" y2="186.507" stroke="#1677C7" stroke-width="2"/>
<line x1="1418.31" y1="178.507" x2="1372.71" y2="224.107" stroke="#1677C7" stroke-width="2"/>
<line x1="1407.11" y1="154.507" x2="1348.71" y2="212.907" stroke="#1677C7" stroke-width="2"/>
<line x1="1367.91" y1="154.507" x2="1349.51" y2="172.907" stroke="#1677C7" stroke-width="2"/>
<g clip-path="url(#clip0_229_3)">
<path d="M1226.9 315.227C1233.95 298.042 1244.23 282.268 1253.13 265.99C1265.16 244.015 1275.73 221.339 1287.57 199.279C1292.31 190.452 1297.24 181.672 1302.49 173.126C1304.49 169.856 1306.68 166.689 1309.43 163.976C1310.96 162.469 1311.59 162.289 1311.17 164.684C1309.64 173.426 1306.76 181.92 1303.74 190.247C1287.32 235.545 1268.41 279.998 1251.1 324.967C1241.19 350.704 1231.62 376.564 1221.57 402.246C1219.79 406.8 1224.94 393.068 1226.66 388.49C1243.1 344.72 1258.5 300.6 1275.41 256.987C1283.95 234.965 1293.82 213.395 1305.75 192.933C1305.97 192.556 1308.77 187.338 1308.77 190.837C1308.77 194.874 1307.46 199.269 1306.56 203.117C1301.98 222.559 1296.5 241.862 1290.69 260.972C1276.12 308.812 1257.52 355.208 1240.44 402.187C1238.49 407.532 1234.45 415.134 1234.45 421.138C1234.45 422.395 1235.32 418.775 1235.76 417.595C1238.61 409.992 1241.08 402.252 1244.03 394.689C1250.48 378.165 1258.44 362.206 1266.19 346.25C1276.25 325.524 1286.46 304.869 1297.24 284.498C1302.99 273.651 1308.85 262.86 1314.73 252.087C1316.58 248.711 1318.92 244.433 1320.87 241.047C1321.38 240.174 1323.34 235.904 1324.89 235.232C1325.63 234.908 1325.55 237.406 1325.54 237.476C1325.43 242.575 1324.35 247.765 1323.21 252.707C1318.94 271.113 1312.79 289.172 1306.8 307.08C1297.78 334.023 1287.81 360.571 1277.09 386.896C1271.68 400.181 1266.46 413.644 1260.32 426.628C1258.94 429.542 1257.42 432.645 1255.29 435.129C1254.46 436.091 1254.36 435.362 1254.51 434.539C1255.31 430.187 1257.18 425.902 1258.73 421.787C1263.99 407.852 1270.03 394.323 1276.4 380.845C1289.46 353.22 1302.62 325.632 1316.08 298.195C1334.12 261.421 1351.7 224.261 1371.72 188.476C1372.86 186.446 1373.15 185.988 1374.12 184.166C1374.28 183.87 1374.41 183.002 1374.6 183.281C1375.2 184.175 1373.9 188.173 1373.76 188.653C1370.14 201.271 1364.55 213.445 1359.68 225.61C1347.9 255.078 1336.23 284.566 1324.02 313.869C1308.67 350.69 1263.4 461.444 1279.31 424.857C1280.44 422.254 1281.2 419.484 1282.18 416.828C1287.06 403.655 1292.6 390.693 1298.47 377.923C1320.37 330.295 1346.79 284.579 1371.33 238.243C1374.62 232.035 1377.64 225.149 1381.72 219.352C1382.89 217.693 1382.55 219.109 1382.35 220.149C1381.38 225.397 1379.93 230.521 1378.43 235.646C1370.27 263.509 1361.41 291.209 1352.08 318.71C1340.92 351.571 1328.81 384.087 1316.8 416.651C1312.38 428.626 1307.64 440.613 1304.34 452.958C1304.01 454.183 1302.46 458.138 1303.02 459.629C1303.81 461.706 1304.46 455.422 1305.15 453.312C1308.7 442.539 1313.23 432.103 1317.88 421.757C1328.71 397.669 1339.88 373.737 1350.64 349.615C1363.28 321.268 1375.93 292.939 1389.06 264.81C1397.63 246.454 1406.01 227.948 1416.01 210.29C1416.17 210.005 1421.71 198.415 1423.56 198.187C1425.79 197.912 1423.67 202.673 1423.14 204.829C1420.25 216.593 1416.05 228.128 1411.79 239.454C1393.51 288.027 1373.57 335.991 1355.19 384.535C1346.2 408.296 1337.41 432.11 1329.2 456.146C1326.39 464.355 1323.31 472.56 1321.05 480.941C1320.15 484.303 1319.09 493.968 1321.62 485.015C1328.88 459.305 1337.53 433.99 1346.63 408.858C1361.04 369.04 1380.01 331.491 1401.13 294.741C1403.92 289.888 1406.79 285.054 1409.81 280.336C1410.26 279.64 1410.71 278.828 1410.71 280.1C1410.71 299.236 1403.17 318.672 1397.6 336.657C1384.41 379.179 1369.09 420.999 1354.83 463.171C1354.18 465.085 1353.22 470.965 1353.04 468.957C1352.65 464.783 1354.86 459.345 1356.12 455.644C1363.3 434.498 1372.15 413.784 1380.62 393.125C1395.32 357.248 1410.97 321.828 1427.72 286.83C1442.35 256.266 1457.38 225.862 1473.21 195.885C1479.9 183.217 1486.57 170.407 1494.2 158.249C1494.41 157.927 1495.48 155.704 1495.34 157.482C1494.84 164.128 1492.41 171.113 1490.61 177.436C1483.25 203.363 1473.65 228.523 1463.9 253.652C1445.34 301.468 1425.53 348.777 1406.49 396.401C1402.23 407.049 1398.38 417.829 1394.48 428.606C1393.17 432.235 1391.51 435.962 1390.86 439.793C1390.82 440.036 1390.77 440.727 1390.92 440.531C1391.51 439.77 1391.89 438.867 1392.36 438.022C1396.61 430.246 1400.11 422.066 1403.79 414.024C1423.84 370.31 1443.1 326.012 1465.19 283.258C1470.39 273.179 1475.87 263.215 1481.45 253.327C1482.75 251.01 1485.42 244.228 1486.06 246.804C1486.9 250.207 1484.89 256.17 1484.14 259.201C1479.52 278.012 1472.99 296.479 1466.95 314.872C1447.96 372.702 1427.21 429.835 1405.71 486.786C1404.19 490.805 1402.35 495.037 1402.12 499.39C1402.1 499.788 1401.88 501.815 1402.51 500.158C1406.26 490.289 1409.56 480.236 1413.26 470.344C1426.53 434.824 1442.37 400.375 1458.93 366.234C1470.36 342.659 1482.65 319.602 1495.7 296.866C1502.49 285.046 1509.09 272.888 1517.08 261.799C1517.3 261.495 1523.06 252.975 1524.45 253.416C1526.66 254.116 1523.29 266.708 1523.1 267.466C1512.94 308.36 1496.35 347.714 1482.2 387.339C1475.53 406.015 1468.86 424.714 1463.21 443.719C1461.46 449.609 1460.31 456.305 1457.73 461.932C1456.93 463.677 1458.19 458.115 1458.69 456.264C1461.36 446.381 1464.84 436.672 1468.93 427.277C1474.33 414.873 1480.78 402.99 1487.44 391.206C1489.71 387.177 1493.07 378.144 1497.59 375.65C1498.83 374.965 1499.01 378.276 1499.03 378.661C1499.23 384.218 1497.9 390.216 1497.02 395.634C1495.06 407.662 1492.11 419.288 1488.63 430.967C1484.99 443.234 1482.66 455.116 1480.79 467.717" stroke="#191C24" stroke-width="2.4" stroke-linecap="round"/>
</g>
<rect x="1262.8" y="240.8" width="69.6" height="69.6" rx="7.2" stroke="#1677C7" stroke-width="1.6"/>
<g clip-path="url(#clip1_229_3)">
<path d="M90.8998 985.227C97.9519 968.042 108.228 952.268 117.133 935.99C129.156 914.015 139.735 891.339 151.572 869.279C156.308 860.452 161.24 851.672 166.485 843.126C168.493 839.856 170.68 836.689 173.433 833.976C174.961 832.469 175.589 832.289 175.17 834.684C173.639 843.426 170.762 851.92 167.743 860.247C151.321 905.545 132.414 949.998 115.097 994.967C105.186 1020.7 95.6189 1046.56 85.5692 1072.25C83.7873 1076.8 88.9414 1063.07 90.6602 1058.49C107.096 1014.72 122.5 970.6 139.413 926.987C147.954 904.965 157.819 883.395 169.75 862.933C169.969 862.556 172.774 857.338 172.774 860.837C172.774 864.874 171.464 869.269 170.558 873.117C165.981 892.559 160.505 911.862 154.686 930.972C140.119 978.812 121.52 1025.21 104.436 1072.19C102.492 1077.53 98.4463 1085.13 98.4463 1091.14C98.4463 1092.4 99.3229 1088.78 99.764 1087.6C102.606 1079.99 105.078 1072.25 108.029 1064.69C114.477 1048.16 122.444 1032.21 130.19 1016.25C140.251 995.524 150.46 974.869 161.245 954.498C166.987 943.651 172.849 932.86 178.734 922.087C180.578 918.711 182.917 914.433 184.873 911.047C185.377 910.174 187.341 905.904 188.885 905.232C189.631 904.908 189.546 907.406 189.544 907.476C189.433 912.575 188.354 917.765 187.208 922.707C182.941 941.113 176.79 959.172 170.798 977.08C161.782 1004.02 151.814 1030.57 141.09 1056.9C135.679 1070.18 130.457 1083.64 124.32 1096.63C122.943 1099.54 121.422 1102.65 119.289 1105.13C118.464 1106.09 118.36 1105.36 118.511 1104.54C119.307 1100.19 121.18 1095.9 122.733 1091.79C127.991 1077.85 134.032 1064.32 140.402 1050.85C153.457 1023.22 166.624 995.632 180.081 968.195C198.117 931.421 215.702 894.261 235.722 858.476C236.858 856.446 237.148 855.988 238.118 854.166C238.276 853.87 238.409 853.002 238.597 853.281C239.202 854.175 237.896 858.173 237.759 858.653C234.143 871.271 228.549 883.445 223.684 895.61C211.897 925.078 200.227 954.566 188.017 983.869C172.674 1020.69 127.399 1131.44 143.307 1094.86C144.438 1092.25 145.197 1089.48 146.181 1086.83C151.061 1073.65 156.602 1060.69 162.472 1047.92C184.367 1000.29 210.787 954.579 235.333 908.243C238.622 902.035 241.64 895.149 245.724 889.352C246.893 887.693 246.547 889.109 246.353 890.149C245.375 895.397 243.932 900.521 242.43 905.646C234.266 933.509 225.412 961.209 216.077 988.71C204.923 1021.57 192.806 1054.09 180.8 1086.65C176.384 1098.63 171.64 1110.61 168.342 1122.96C168.015 1124.18 166.457 1128.14 167.024 1129.63C167.815 1131.71 168.456 1125.42 169.151 1123.31C172.697 1112.54 177.228 1102.1 181.878 1091.76C192.706 1067.67 203.884 1043.74 214.64 1019.62C227.28 991.268 239.928 962.939 253.061 934.81C261.632 916.454 270.015 897.948 280.013 880.29C280.175 880.005 285.709 868.415 287.56 868.187C289.793 867.912 287.67 872.673 287.141 874.829C284.25 886.593 280.053 898.128 275.791 909.454C257.513 958.027 237.571 1005.99 219.192 1054.54C210.196 1078.3 201.407 1102.11 193.198 1126.15C190.394 1134.36 187.308 1142.56 185.052 1150.94C184.147 1154.3 183.093 1163.97 185.621 1155.01C192.882 1129.3 201.528 1103.99 210.627 1078.86C225.042 1039.04 244.014 1001.49 265.13 964.741C267.918 959.888 270.794 955.054 273.814 950.336C274.26 949.64 274.713 948.828 274.713 950.1C274.713 969.236 267.174 988.672 261.596 1006.66C248.407 1049.18 233.094 1091 218.832 1133.17C218.185 1135.08 217.221 1140.97 217.035 1138.96C216.65 1134.78 218.863 1129.34 220.12 1125.64C227.3 1104.5 236.149 1083.78 244.616 1063.12C259.321 1027.25 274.975 991.828 291.723 956.83C306.348 926.266 321.381 895.862 337.212 865.885C343.902 853.217 350.574 840.407 358.204 828.249C358.407 827.927 359.478 825.704 359.342 827.482C358.837 834.128 356.406 841.113 354.611 847.436C347.251 873.363 337.649 898.523 327.898 923.652C309.343 971.468 289.532 1018.78 270.49 1066.4C266.233 1077.05 262.382 1087.83 258.482 1098.61C257.168 1102.23 255.506 1105.96 254.858 1109.79C254.817 1110.04 254.765 1110.73 254.918 1110.53C255.512 1109.77 255.893 1108.87 256.356 1108.02C260.611 1100.25 264.108 1092.07 267.795 1084.02C287.838 1040.31 307.096 996.012 329.186 953.258C334.394 943.179 339.874 933.215 345.447 923.327C346.753 921.01 349.423 914.228 350.059 916.804C350.899 920.207 348.888 926.17 348.142 929.201C343.517 948.012 336.993 966.479 330.953 984.872C311.962 1042.7 291.211 1099.83 269.712 1156.79C268.195 1160.8 266.351 1165.04 266.118 1169.39C266.097 1169.79 265.877 1171.81 266.507 1170.16C270.262 1160.29 273.562 1150.24 277.258 1140.34C290.531 1104.82 306.372 1070.37 322.927 1036.23C334.359 1012.66 346.649 989.602 359.702 966.866C366.488 955.046 373.085 942.888 381.084 931.799C381.303 931.495 387.059 922.975 388.451 923.416C390.663 924.116 387.291 936.708 387.103 937.466C376.943 978.36 360.346 1017.71 346.196 1057.34C339.527 1076.01 332.861 1094.71 327.209 1113.72C325.458 1119.61 324.307 1126.31 321.729 1131.93C320.93 1133.68 322.188 1128.11 322.688 1126.26C325.357 1116.38 328.838 1106.67 332.929 1097.28C338.331 1084.87 344.783 1072.99 351.436 1061.21C353.711 1057.18 357.069 1048.14 361.588 1045.65C362.829 1044.97 363.012 1048.28 363.026 1048.66C363.227 1054.22 361.901 1060.22 361.019 1065.63C359.061 1077.66 356.107 1089.29 352.634 1100.97C348.987 1113.23 346.663 1125.12 344.788 1137.72" stroke="#191C24" stroke-width="2.4" stroke-linecap="round"/>
</g>
<rect x="126.8" y="910.8" width="69.6" height="69.6" rx="7.2" stroke="#1677C7" stroke-width="1.6"/>
<rect x="1445" y="889" width="72" height="72" rx="8" fill="#191C24"/>
<rect x="293.2" y="763.8" width="69.6" height="69.6" rx="6.8" transform="rotate(-90 293.2 763.8)" stroke="#1677C7" stroke-width="2.4"/>
<line x1="339.907" y1="693.893" x2="363.107" y2="717.093" stroke="#1677C7" stroke-width="2"/>
<line x1="306.307" y1="694.693" x2="363.107" y2="751.493" stroke="#1677C7" stroke-width="2"/>
<line x1="293.507" y1="719.493" x2="338.307" y2="764.293" stroke="#1677C7" stroke-width="2"/>
<line x1="350.307" y1="693.893" x2="363.107" y2="706.693" stroke="#1677C7" stroke-width="2"/>
<line x1="328.707" y1="693.893" x2="363.107" y2="728.293" stroke="#1677C7" stroke-width="2"/>
<line x1="296.707" y1="696.293" x2="361.507" y2="761.093" stroke="#1677C7" stroke-width="2"/>
<line x1="292.707" y1="731.493" x2="325.507" y2="764.293" stroke="#1677C7" stroke-width="2"/>
<line x1="317.507" y1="694.693" x2="363.107" y2="740.293" stroke="#1677C7" stroke-width="2"/>
<line x1="293.507" y1="705.893" x2="351.907" y2="764.293" stroke="#1677C7" stroke-width="2"/>
<line x1="293.507" y1="745.093" x2="311.907" y2="763.493" stroke="#1677C7" stroke-width="2"/>
<g clip-path="url(#clip2_229_3)">
<path d="M1294.14 680.328C1298.76 675.919 1303.22 671.355 1307.69 666.791C1315.69 658.604 1321.14 648.453 1329.08 640.21C1330.82 638.4 1332.79 636.481 1334.82 634.943C1335.5 634.422 1335.66 634.499 1335.38 635.149C1330.84 645.424 1323.47 655.032 1317.48 664.61C1300.38 691.921 1282.51 719.278 1269 748.426C1268.62 749.239 1265.69 753.637 1266.28 754.681C1266.48 755.043 1266.93 754.611 1266.97 754.392C1267.17 753.154 1268.26 751.719 1268.87 750.648C1272.38 744.391 1275.96 738.146 1279.91 732.132C1290.44 716.098 1300.32 699.769 1311.72 684.258C1315.67 678.878 1319.42 673.411 1323.17 667.902C1324.43 666.053 1325.78 663.647 1327.66 662.285C1328.62 661.586 1327.24 666.12 1327.05 666.791C1325.7 671.672 1323 675.972 1320.47 680.369C1310.26 698.187 1300.06 716.014 1290.3 734.066C1284.45 744.886 1278.98 755.773 1274.43 767.148C1273.17 770.303 1271.15 773.877 1270.87 777.311C1270.66 779.988 1271.69 780.012 1273.35 777.846C1290.84 755.011 1304.69 729.894 1319.27 705.325C1326.67 692.854 1334.03 680.36 1341.57 667.963C1344.61 662.954 1347.3 657.456 1350.93 652.801C1351.2 652.447 1353.54 649.445 1353.54 651.299C1353.54 654.654 1350.59 658.466 1349.18 661.318C1340.52 678.83 1331.66 696.237 1321.79 713.163C1314.5 725.66 1307.78 738.192 1301.69 751.265C1298.45 758.219 1295.75 765.267 1293.06 772.415C1292.25 774.569 1292.2 774.152 1293.15 772.333C1298.12 762.78 1305.05 753.998 1311.14 745.093C1320.12 731.955 1328.58 718.542 1337.19 705.181C1344.56 693.744 1352.03 682.351 1359.32 670.864C1362.02 666.598 1364.32 662.232 1367.64 658.356C1369.33 656.384 1370.43 655.54 1370.23 658.479C1369.96 662.427 1367.82 666.783 1366.26 670.371C1360.34 684.014 1353.2 697.193 1347.02 710.736C1341.54 722.764 1336.4 735.032 1331.93 747.439C1330 752.777 1328.25 758.228 1327.31 763.815C1327.26 764.124 1326.68 766.245 1327.4 765.338C1334.28 756.58 1340.59 747.437 1346.79 738.222C1364.45 711.932 1380.23 684.542 1397.44 657.985C1398.07 657.02 1399.38 654.26 1399.71 655.352C1399.94 656.108 1399.69 657.24 1399.49 657.965C1395.49 672.809 1388.81 687.116 1383.45 701.519C1378.75 714.136 1374.52 726.916 1370.36 739.703C1368.78 744.548 1367.92 749.348 1367.34 754.372C1367.22 755.402 1366.84 757.322 1367.86 755.421C1370.79 749.947 1374.03 744.583 1377.24 739.25C1380.84 733.255 1384.69 727.26 1388.95 721.66C1389.4 721.065 1391.84 717.158 1393.28 717.772C1394.35 718.226 1392.46 724.433 1392.36 725.302C1391.65 730.996 1390.31 736.567 1389.06 742.172C1386.91 751.745 1385.36 761.383 1383.81 771.057" stroke="#1677C7" stroke-width="2.4" stroke-linecap="round"/>
</g>
<rect x="1296.2" y="666.2" width="69.6" height="69.6" rx="6.8" stroke="#1677C7" stroke-width="2.4"/>
<g clip-path="url(#clip3_229_3)">
<path d="M212.142 150.328C216.763 145.919 221.222 141.355 225.685 136.791C233.691 128.604 239.145 118.453 247.079 110.21C248.821 108.4 250.79 106.481 252.816 104.943C253.502 104.422 253.663 104.499 253.377 105.149C248.842 115.424 241.473 125.032 235.476 134.61C218.379 161.921 200.515 189.278 186.995 218.426C186.618 219.239 183.689 223.637 184.278 224.681C184.483 225.043 184.932 224.611 184.968 224.392C185.173 223.154 186.265 221.719 186.866 220.648C190.376 214.391 193.956 208.146 197.908 202.132C208.443 186.098 218.315 169.769 229.718 154.258C233.673 148.878 237.424 143.411 241.17 137.902C242.427 136.053 243.782 133.647 245.656 132.285C246.618 131.586 245.238 136.12 245.052 136.791C243.697 141.672 240.996 145.972 238.474 150.369C228.257 168.187 218.061 186.014 208.303 204.066C202.454 214.886 196.98 225.773 192.43 237.148C191.168 240.303 189.148 243.877 188.871 247.311C188.656 249.988 189.693 250.012 191.351 247.846C208.844 225.011 222.688 199.894 237.266 175.325C244.666 162.854 252.029 150.36 259.566 137.963C262.612 132.954 265.303 127.456 268.926 122.801C269.202 122.447 271.536 119.445 271.536 121.299C271.536 124.654 268.589 128.466 267.179 131.318C258.521 148.83 249.659 166.237 239.79 183.163C232.503 195.66 225.777 208.192 219.69 221.265C216.452 228.219 213.752 235.267 211.063 242.415C210.253 244.569 210.203 244.152 211.149 242.333C216.117 232.78 223.047 223.998 229.136 215.093C238.119 201.955 246.578 188.542 255.188 175.181C262.559 163.744 270.032 152.351 277.315 140.864C280.021 136.598 282.323 132.232 285.64 128.356C287.328 126.384 288.43 125.54 288.228 128.479C287.957 132.427 285.815 136.783 284.26 140.371C278.345 154.014 271.201 167.193 265.022 180.736C259.535 192.764 254.4 205.032 249.926 217.439C248.001 222.777 246.246 228.228 245.311 233.815C245.259 234.124 244.683 236.245 245.397 235.338C252.283 226.58 258.593 217.437 264.785 208.222C282.453 181.932 298.229 154.542 315.445 127.985C316.071 127.02 317.382 124.26 317.709 125.352C317.936 126.108 317.689 127.24 317.494 127.965C313.492 142.809 306.812 157.116 301.448 171.519C296.75 184.136 292.517 196.916 288.357 209.703C286.781 214.548 285.923 219.348 285.338 224.372C285.218 225.402 284.837 227.322 285.856 225.421C288.789 219.947 292.034 214.583 295.237 209.25C298.838 203.255 302.695 197.26 306.948 191.66C307.399 191.065 309.835 187.158 311.283 187.772C312.354 188.226 310.462 194.433 310.355 195.302C309.653 200.996 308.311 206.567 307.055 212.172C304.912 221.745 303.362 231.383 301.815 241.057" stroke="#1677C7" stroke-width="2.4" stroke-linecap="round"/>
</g>
<rect x="214.2" y="136.2" width="69.6" height="69.6" rx="6.8" stroke="#1677C7" stroke-width="2.4"/>
<defs>
<clipPath id="clip0_229_3">
<rect x="1262" y="240" width="71.2" height="71.2" rx="8" fill="white"/>
</clipPath>
<clipPath id="clip1_229_3">
<rect x="126" y="910" width="71.2" height="71.2" rx="8" fill="white"/>
</clipPath>
<clipPath id="clip2_229_3">
<rect x="1295" y="665" width="72" height="72" rx="8" fill="white"/>
</clipPath>
<clipPath id="clip3_229_3">
<rect x="213" y="135" width="72" height="72" rx="8" fill="white"/>
</clipPath>
</defs>
</svg>
