<svg width="18" height="18" viewBox="0 0 18 18" fill="none" xmlns="http://www.w3.org/2000/svg">
<path d="M8.99301 4.55261L4.80059 8.67401C4.60351 8.869 4.35716 8.97093 4.06154 8.97979C3.76592 8.98865 3.51062 8.88673 3.29562 8.67401C3.09854 8.47902 3 8.23085 3 7.9295C3 7.62815 3.09854 7.37998 3.29562 7.18499L8.24053 2.29249C8.34802 2.18613 8.46448 2.11079 8.58989 2.06647C8.71531 2.02216 8.84968 2 8.99301 2C9.13634 2 9.27072 2.02216 9.39613 2.06647C9.52154 2.11079 9.638 2.18613 9.7455 2.29249L14.6904 7.18499C14.8875 7.37998 14.9905 7.62372 14.9995 7.9162C15.0084 8.20869 14.9054 8.46129 14.6904 8.67401C14.4933 8.869 14.2425 8.9665 13.9379 8.9665C13.6333 8.9665 13.3825 8.869 13.1854 8.67401L8.99301 4.55261ZM8.99301 11.5723L4.80059 15.6937C4.60351 15.8887 4.35716 15.9906 4.06154 15.9995C3.76592 16.0083 3.51062 15.9064 3.29562 15.6937C3.09854 15.4987 3 15.2505 3 14.9492C3 14.6478 3.09854 14.3997 3.29562 14.2047L8.24053 9.31216C8.34802 9.2058 8.46448 9.13047 8.58989 9.08615C8.71531 9.04183 8.84968 9.01968 8.99301 9.01968C9.13634 9.01968 9.27072 9.04183 9.39613 9.08615C9.52154 9.13047 9.638 9.2058 9.7455 9.31216L14.6904 14.2047C14.8875 14.3997 14.9905 14.6434 14.9995 14.9359C15.0084 15.2284 14.9054 15.481 14.6904 15.6937C14.4933 15.8887 14.2425 15.9862 13.9379 15.9862C13.6333 15.9862 13.3825 15.8887 13.1854 15.6937L8.99301 11.5723Z" fill="#E3E3E3"/>
</svg>
