<svg width="163" height="39" viewBox="0 0 163 39" fill="none" xmlns="http://www.w3.org/2000/svg">
<path d="M11.7332 10.05C14.2665 10.05 16.3692 11.0127 18.0412 12.938C19.7385 14.8633 20.5872 17.2193 20.5872 20.006V26.694C20.5872 27.2767 20.5619 27.72 20.5112 28.024C20.4859 28.3027 20.3719 28.632 20.1692 29.012C19.8399 29.6707 18.8645 30 17.2432 30C15.6979 30 14.7352 29.6707 14.3552 29.012C14.1525 28.632 14.0259 28.29 13.9752 27.986C13.9499 27.682 13.9372 27.226 13.9372 26.618V19.968C13.9372 18.9293 13.6459 18.1187 13.0632 17.536C12.4805 16.9533 11.7332 16.662 10.8212 16.662C9.93452 16.662 9.14919 16.9407 8.46519 17.498C7.78119 18.03 7.38852 18.638 7.28719 19.322V26.694C7.28719 27.2767 7.26185 27.72 7.21119 28.024C7.18585 28.3027 7.07185 28.632 6.86919 29.012C6.53985 29.6707 5.56452 30 3.94319 30C2.34719 30 1.37185 29.658 1.01719 28.974C0.839854 28.594 0.725854 28.2647 0.675188 27.986C0.649854 27.7073 0.637188 27.264 0.637188 26.656V3.932C0.637188 3.34933 0.649854 2.91867 0.675188 2.64C0.725854 2.336 0.839854 2.00666 1.01719 1.652C1.37185 0.967998 2.35985 0.625998 3.98119 0.625998C5.57719 0.625998 6.53985 0.967998 6.86919 1.652C7.07185 2.032 7.18585 2.374 7.21119 2.678C7.26185 2.95667 7.28719 3.38733 7.28719 3.97V12.368C8.55385 10.8227 10.0359 10.05 11.7332 10.05ZM36.641 12.102C36.793 10.6833 37.7937 9.974 39.643 9.974C40.631 9.974 41.3657 10.05 41.847 10.202C42.3283 10.354 42.6577 10.62 42.835 11C43.0377 11.38 43.1517 11.722 43.177 12.026C43.2277 12.3047 43.253 12.7353 43.253 13.318V26.618C43.253 27.2007 43.2277 27.644 43.177 27.948C43.1517 28.2267 43.0503 28.556 42.873 28.936C42.5183 29.5947 41.6443 29.924 40.251 29.924C38.883 29.924 37.9583 29.7593 37.477 29.43C37.021 29.0753 36.755 28.5687 36.679 27.91C35.7417 29.2527 34.171 29.924 31.967 29.924C29.7883 29.924 27.7617 28.9233 25.887 26.922C24.0123 24.9207 23.075 22.6027 23.075 19.968C23.075 17.308 24.0123 14.99 25.887 13.014C27.787 11.0127 29.8643 10.012 32.119 10.012C32.9803 10.012 33.7657 10.164 34.475 10.468C35.1843 10.772 35.6783 11.0633 35.957 11.342C36.2357 11.5953 36.4637 11.8487 36.641 12.102ZM29.725 20.006C29.725 20.842 30.0543 21.602 30.713 22.286C31.3717 22.9447 32.1697 23.274 33.107 23.274C34.0443 23.274 34.817 22.932 35.425 22.248C36.0583 21.564 36.375 20.8167 36.375 20.006C36.375 19.17 36.071 18.3973 35.463 17.688C34.8803 16.9787 34.0823 16.624 33.069 16.624C32.081 16.624 31.2703 16.9787 30.637 17.688C30.029 18.3973 29.725 19.17 29.725 20.006ZM57.4157 9.974C59.9491 9.974 62.0517 10.9493 63.7237 12.9C65.4211 14.8253 66.2697 17.1813 66.2697 19.968V26.656C66.2697 27.2387 66.2444 27.682 66.1937 27.986C66.1684 28.2647 66.0671 28.5813 65.8897 28.936C65.5351 29.62 64.5471 29.962 62.9257 29.962C61.1271 29.962 60.0884 29.4933 59.8097 28.556C59.6577 28.1253 59.5817 27.4793 59.5817 26.618V19.93C59.5817 18.8913 59.2777 18.0807 58.6697 17.498C58.0871 16.9153 57.2891 16.624 56.2757 16.624C55.2877 16.624 54.4771 16.928 53.8437 17.536C53.2357 18.144 52.9317 18.942 52.9317 19.93V26.656C52.9317 27.2387 52.9064 27.682 52.8557 27.986C52.8304 28.2647 52.7164 28.5813 52.5137 28.936C52.1844 29.62 51.2091 29.962 49.5877 29.962C47.9917 29.962 47.0164 29.62 46.6617 28.936C46.4844 28.556 46.3704 28.2267 46.3197 27.948C46.2944 27.644 46.2817 27.2007 46.2817 26.618V13.166C46.2817 12.6087 46.2944 12.1907 46.3197 11.912C46.3704 11.608 46.4971 11.2787 46.6997 10.924C47.0544 10.2907 48.0297 9.974 49.6257 9.974C51.1711 9.974 52.1211 10.2653 52.4757 10.848C52.7291 11.2787 52.8557 11.798 52.8557 12.406C52.9571 12.2287 53.1851 11.9753 53.5397 11.646C53.8944 11.3167 54.2364 11.0507 54.5657 10.848C55.4271 10.2653 56.3771 9.974 57.4157 9.974ZM82.7406 1.652C82.9433 1.272 83.2853 1.006 83.7666 0.853999C84.248 0.701998 84.8813 0.625998 85.6666 0.625998C86.4773 0.625998 87.1233 0.701998 87.6046 0.853999C88.086 1.006 88.4153 1.272 88.5926 1.652C88.7953 2.032 88.9093 2.374 88.9346 2.678C88.9853 2.95667 89.0106 3.38733 89.0106 3.97V26.656C89.0106 27.2387 88.9853 27.682 88.9346 27.986C88.9093 28.2647 88.7953 28.5813 88.5926 28.936C88.2126 29.62 87.136 29.962 85.3626 29.962C83.6146 29.962 82.6393 29.3413 82.4366 28.1C81.3726 29.316 79.8906 29.924 77.9906 29.924C75.7106 29.924 73.6333 28.936 71.7586 26.96C69.884 24.9587 68.9466 22.6407 68.9466 20.006C68.9466 17.346 69.884 15.0153 71.7586 13.014C73.6586 11.0127 75.736 10.012 77.9906 10.012C79.8653 10.012 81.322 10.6453 82.3606 11.912V3.932C82.3606 3.34933 82.3733 2.91867 82.3986 2.64C82.4493 2.336 82.5633 2.00666 82.7406 1.652ZM76.5846 22.286C77.2433 22.97 78.0413 23.312 78.9786 23.312C79.916 23.312 80.6886 22.97 81.2966 22.286C81.93 21.602 82.2466 20.8547 82.2466 20.044C82.2466 19.208 81.9426 18.4353 81.3346 17.726C80.752 17.0167 79.954 16.662 78.9406 16.662C77.9273 16.662 77.1166 17.0167 76.5086 17.726C75.9006 18.41 75.5966 19.17 75.5966 20.006C75.5966 20.842 75.926 21.602 76.5846 22.286ZM92.1896 28.214C91.7082 27.91 91.4676 27.4287 91.4676 26.77C91.4676 26.1113 91.9489 25.1107 92.9116 23.768C93.1902 23.3373 93.6336 23.122 94.2416 23.122C94.8749 23.122 95.7236 23.4387 96.7876 24.072C97.8516 24.68 98.8142 24.984 99.6756 24.984C101.221 24.984 101.994 24.68 101.994 24.072C101.994 23.5907 101.145 23.236 99.4476 23.008C97.8516 22.78 96.2682 22.1847 94.6976 21.222C93.9629 20.766 93.3549 20.0567 92.8736 19.094C92.3922 18.106 92.1516 16.9407 92.1516 15.598C92.1516 11.5953 94.9002 9.594 100.398 9.594C102.196 9.594 104.046 10.0247 105.946 10.886C106.832 11.2913 107.276 11.798 107.276 12.406C107.276 13.014 106.997 13.7613 106.44 14.648C105.882 15.5347 105.312 15.978 104.73 15.978C104.426 15.978 103.856 15.788 103.02 15.408C102.209 15.028 101.322 14.838 100.36 14.838C98.8649 14.838 98.1176 15.1167 98.1176 15.674C98.1176 16.434 98.9789 16.928 100.702 17.156C102.374 17.3333 103.995 17.8147 105.566 18.6C106.3 18.9547 106.908 19.5753 107.39 20.462C107.896 21.3233 108.15 22.4127 108.15 23.73C108.15 25.0473 107.896 26.1747 107.39 27.112C106.908 28.024 106.224 28.708 105.338 29.164C103.716 29.9493 101.677 30.342 99.2196 30.342C96.7876 30.342 94.4442 29.6327 92.1896 28.214Z" fill="white"/>
<path d="M129.133 29.924C126.574 29.924 124.446 28.9613 122.749 27.036C121.077 25.0853 120.241 22.7167 120.241 19.93V13.28C120.241 12.672 120.253 12.2287 120.279 11.95C120.329 11.6713 120.443 11.342 120.621 10.962C120.975 10.278 121.963 9.936 123.585 9.936C125.358 9.936 126.397 10.4173 126.701 11.38C126.853 11.7853 126.929 12.4313 126.929 13.318V19.968C126.929 21.0067 127.22 21.8173 127.803 22.4C128.411 22.9827 129.209 23.274 130.197 23.274C131.21 23.274 132.021 22.97 132.629 22.362C133.262 21.754 133.579 20.956 133.579 19.968V13.242C133.579 12.6593 133.591 12.2287 133.617 11.95C133.667 11.646 133.794 11.304 133.997 10.924C134.326 10.2653 135.301 9.936 136.923 9.936C138.519 9.936 139.494 10.278 139.849 10.962C140.026 11.342 140.127 11.684 140.153 11.988C140.203 12.2667 140.229 12.6973 140.229 13.28V26.732C140.229 27.2893 140.203 27.72 140.153 28.024C140.127 28.3027 140.013 28.6193 139.811 28.974C139.431 29.6327 138.455 29.962 136.885 29.962C135.339 29.962 134.389 29.658 134.035 29.05C133.781 28.6193 133.655 28.1 133.655 27.492C133.553 27.6693 133.325 27.9227 132.971 28.252C132.616 28.5813 132.274 28.86 131.945 29.088C131.083 29.6453 130.146 29.924 129.133 29.924ZM143.286 35.434V13.242C143.286 12.6593 143.298 12.2287 143.324 11.95C143.374 11.6713 143.488 11.3547 143.666 11C144.02 10.316 144.869 9.974 146.212 9.974C147.554 9.974 148.454 10.1513 148.91 10.506C149.391 10.8353 149.67 11.3293 149.746 11.988C150.708 10.6707 152.216 10.012 154.268 10.012C156.345 10.012 158.308 10.9873 160.158 12.938C162.007 14.8887 162.932 17.156 162.932 19.74C162.932 22.324 162.007 24.5913 160.158 26.542C158.334 28.4927 156.383 29.468 154.306 29.468C152.228 29.468 150.721 28.8853 149.784 27.72V35.396C149.784 35.9787 149.758 36.4093 149.708 36.688C149.682 36.9667 149.568 37.2833 149.366 37.638C149.188 38.018 148.872 38.284 148.416 38.436C147.96 38.588 147.339 38.664 146.554 38.664C145.768 38.664 145.135 38.588 144.654 38.436C144.198 38.284 143.868 38.0307 143.666 37.676C143.488 37.3213 143.374 37.0047 143.324 36.726C143.298 36.4473 143.286 36.0167 143.286 35.434ZM150.81 17.536C150.227 18.22 149.936 18.9673 149.936 19.778C149.936 20.5887 150.227 21.336 150.81 22.02C151.418 22.6787 152.178 23.008 153.09 23.008C154.027 23.008 154.812 22.6787 155.446 22.02C156.104 21.3613 156.434 20.614 156.434 19.778C156.434 18.942 156.13 18.1947 155.522 17.536C154.914 16.852 154.116 16.51 153.128 16.51C152.165 16.51 151.392 16.852 150.81 17.536Z" fill="#1677C7"/>
</svg>
